<svg xmlns="http://www.w3.org/2000/svg" width="24.087" height="49.812" viewBox="0 0 24.087 49.812">
  <g id="Group_34" data-name="Group 34" transform="translate(0)">
    <path id="Path_130" data-name="Path 130" d="M4761.818,216.966s-1.094-3.638,0-6.541,4.375-5.068,4.375-5.068,1.094,4.851,0,7.753A7.173,7.173,0,0,1,4761.818,216.966Z" transform="translate(-4742.592 -170.978)" fill="#afafaf"/>
    <path id="Path_133" data-name="Path 133" d="M.45,10.745a10.97,10.97,0,0,1,0-6.054C1.462,2,4.5,0,4.5,0s1.012,4.491,0,7.177A6.64,6.64,0,0,1,.45,10.745Z" transform="translate(15.362 27.954) rotate(7)" fill="#afafaf"/>
    <path id="Path_137" data-name="Path 137" d="M.45,10.745a10.97,10.97,0,0,1,0-6.054C1.462,2,4.5,0,4.5,0s1.012,4.491,0,7.177A6.64,6.64,0,0,1,.45,10.745Z" transform="translate(11.362 19.954) rotate(7)" fill="#afafaf"/>
    <path id="Path_138" data-name="Path 138" d="M.45,10.745a10.97,10.97,0,0,1,0-6.054C1.462,2,4.5,0,4.5,0s1.012,4.491,0,7.177A6.64,6.64,0,0,1,.45,10.745Z" transform="translate(11.362 9.954) rotate(7)" fill="#afafaf"/>
    <path id="Path_139" data-name="Path 139" d="M.446,10.646a10.872,10.872,0,0,1,0-6C1.448,1.986,4.458,0,4.458,0s1,4.449,0,7.11A6.579,6.579,0,0,1,.446,10.646Z" transform="translate(6.893 0.767) rotate(-9)" fill="#afafaf"/>
    <path id="Path_134" data-name="Path 134" d="M.45,0a10.97,10.97,0,0,0,0,6.054C1.462,8.74,4.5,10.745,4.5,10.745s1.012-4.491,0-7.177A6.64,6.64,0,0,0,.45,0Z" transform="matrix(-0.839, 0.545, -0.545, -0.839, 13.164, 38.746)" fill="#afafaf"/>
    <path id="Path_135" data-name="Path 135" d="M.45,0a10.97,10.97,0,0,0,0,6.054C1.462,8.74,4.5,10.745,4.5,10.745s1.012-4.491,0-7.177A6.64,6.64,0,0,0,.45,0Z" transform="translate(8.326 29.79) rotate(160)" fill="#afafaf"/>
    <path id="Path_136" data-name="Path 136" d="M.45,0a10.97,10.97,0,0,0,0,6.054C1.462,8.74,4.5,10.745,4.5,10.745s1.012-4.491,0-7.177A6.64,6.64,0,0,0,.45,0Z" transform="translate(7.915 19.824) rotate(177)" fill="#afafaf"/>
    <path id="Path_131" data-name="Path 131" d="M4.861,11.609s1.094-3.638,0-6.541S.486,0,.486,0s-1.094,4.851,0,7.753A7.173,7.173,0,0,0,4.861,11.609Z" transform="matrix(0.602, -0.799, 0.799, 0.602, 5.169, 42.826)" fill="#afafaf"/>
  </g>
</svg>
