<svg id="Group_35" data-name="Group 35" xmlns="http://www.w3.org/2000/svg" width="24.087" height="49.812" viewBox="0 0 24.087 49.812">
  <path id="Path_130" data-name="Path 130" d="M4766.193,216.966s1.094-3.638,0-6.541-4.375-5.068-4.375-5.068-1.094,4.851,0,7.753A7.173,7.173,0,0,0,4766.193,216.966Z" transform="translate(-4761.332 -170.978)" fill="#afafaf"/>
  <path id="Path_133" data-name="Path 133" d="M.45,0a10.97,10.97,0,0,0,0,6.054C1.462,8.74,4.5,10.745,4.5,10.745s1.012-4.491,0-7.177A6.64,6.64,0,0,0,.45,0Z" transform="translate(10.034 38.619) rotate(173)" fill="#afafaf"/>
  <path id="Path_137" data-name="Path 137" d="M.45,0a10.97,10.97,0,0,0,0,6.054C1.462,8.74,4.5,10.745,4.5,10.745s1.012-4.491,0-7.177A6.64,6.64,0,0,0,.45,0Z" transform="translate(14.034 30.619) rotate(173)" fill="#afafaf"/>
  <path id="Path_138" data-name="Path 138" d="M.45,0a10.97,10.97,0,0,0,0,6.054C1.462,8.74,4.5,10.745,4.5,10.745s1.012-4.491,0-7.177A6.64,6.64,0,0,0,.45,0Z" transform="translate(14.034 20.619) rotate(173)" fill="#afafaf"/>
  <path id="Path_139" data-name="Path 139" d="M.446,0a10.872,10.872,0,0,0,0,6c1,2.661,4.013,4.648,4.013,4.648s1-4.449,0-7.11A6.579,6.579,0,0,0,.446,0Z" transform="translate(15.528 11.282) rotate(-171)" fill="#afafaf"/>
  <path id="Path_134" data-name="Path 134" d="M.45,10.745a10.97,10.97,0,0,1,0-6.054C1.462,2,4.5,0,4.5,0s1.012,4.491,0,7.177A6.64,6.64,0,0,1,.45,10.745Z" transform="matrix(0.839, 0.545, -0.545, 0.839, 16.775, 29.734)" fill="#afafaf"/>
  <path id="Path_135" data-name="Path 135" d="M.45,10.745a10.97,10.97,0,0,1,0-6.054C1.462,2,4.5,0,4.5,0s1.012,4.491,0,7.177A6.64,6.64,0,0,1,.45,10.745Z" transform="translate(19.436 19.693) rotate(20)" fill="#afafaf"/>
  <path id="Path_136" data-name="Path 136" d="M.45,10.745a10.97,10.97,0,0,1,0-6.054C1.462,2,4.5,0,4.5,0s1.012,4.491,0,7.177A6.64,6.64,0,0,1,.45,10.745Z" transform="translate(16.734 9.093) rotate(3)" fill="#afafaf"/>
  <path id="Path_131" data-name="Path 131" d="M4.861,0s1.094,3.638,0,6.541S.486,11.609.486,11.609s-1.094-4.851,0-7.753A7.173,7.173,0,0,1,4.861,0Z" transform="matrix(-0.602, -0.799, 0.799, -0.602, 9.647, 49.812)" fill="#afafaf"/>
</svg>
